<?xml version="1.0" standalone="no"?>
<!DOCTYPE svg PUBLIC "-//W3C//DTD SVG 20010904//EN"
 "http://www.w3.org/TR/2001/REC-SVG-20010904/DTD/svg10.dtd">
<svg version="1.0" xmlns="http://www.w3.org/2000/svg"
 width="295.000000pt" height="295.000000pt" viewBox="0 0 295.000000 295.000000"
 preserveAspectRatio="xMidYMid meet">
<metadata>
Created by potrace 1.14, written by Peter Selinger 2001-2017
</metadata>
<g transform="translate(0.000000,295.000000) scale(0.100000,-0.100000)"
fill="#000000" stroke="none">
<path d="M990 2487 c-34 -16 -61 -44 -90 -92 -13 -22 -29 -43 -34 -47 -6 -4
-7 -8 -3 -8 5 0 -1 -17 -12 -37 -69 -128 -135 -296 -196 -495 -23 -77 -42
-121 -54 -127 -12 -7 -33 -5 -67 5 -27 9 -58 17 -69 20 -11 2 -32 6 -47 9 -28
6 -108 -27 -108 -45 0 -5 17 -27 37 -48 33 -34 47 -40 113 -52 85 -15 114 -30
128 -68 12 -31 12 -29 15 -140 3 -100 -8 -115 -99 -138 -91 -23 -127 -42 -157
-84 l-27 -38 33 -11 c59 -20 78 -21 120 -5 47 17 69 23 114 31 26 4 34 1 48
-21 22 -33 27 -122 9 -164 -8 -19 -24 -44 -36 -57 -12 -13 -30 -47 -40 -75
l-18 -53 54 6 c33 3 66 14 84 27 37 27 51 21 112 -51 50 -59 117 -124 128
-124 4 -1 23 -8 42 -17 19 -9 49 -19 65 -22 17 -3 44 -8 60 -12 79 -18 344 -3
455 26 19 5 52 12 73 15 37 6 139 40 207 68 19 9 37 15 40 15 16 1 68 26 115
57 31 19 60 35 66 35 6 0 7 5 4 10 -3 6 -2 10 3 10 11 0 139 122 139 133 1 5
10 19 20 31 11 12 28 36 38 53 29 50 50 57 91 32 36 -22 95 -22 117 0 16 16
-2 65 -38 106 -19 21 -33 40 -32 42 2 1 55 10 118 19 130 18 186 42 167 73
-22 36 -50 45 -136 42 -46 -1 -92 1 -103 4 -18 6 -18 8 -3 34 9 15 30 33 47
41 34 14 87 66 87 85 0 16 -43 38 -75 38 l-27 0 8 61 c15 122 8 297 -16 406
-5 25 -17 79 -25 120 -8 41 -18 86 -21 100 -3 14 -7 34 -9 45 -28 134 -44 167
-102 202 -34 20 -39 21 -71 7 -34 -14 -82 -59 -129 -120 -12 -16 -30 -38 -41
-50 -11 -11 -34 -50 -51 -86 -51 -105 -119 -128 -281 -95 -69 15 -151 15 -265
2 -90 -11 -112 -10 -130 5 -9 7 -45 58 -81 114 -37 55 -70 103 -73 106 -4 3
-23 28 -41 55 -19 28 -39 55 -45 61 -11 11 -71 45 -77 43 -2 0 -14 -6 -28 -12z
m142 -324 c46 -65 96 -137 111 -160 33 -53 72 -65 137 -46 25 8 60 16 79 19
18 3 43 8 55 10 26 6 228 5 281 -1 55 -6 132 -24 181 -42 22 -8 60 -13 85 -11
42 3 44 4 42 33 -1 17 -5 47 -9 67 -5 30 -2 42 15 65 13 15 43 59 68 97 49 75
66 96 81 96 15 0 68 -214 87 -355 4 -27 8 -106 10 -175 2 -105 -2 -141 -22
-225 -13 -55 -26 -107 -28 -115 -12 -55 -134 -324 -154 -340 -3 -3 -12 -17
-20 -33 -8 -15 -18 -27 -23 -27 -4 0 -8 -4 -8 -10 0 -20 -123 -120 -148 -120
-6 0 -12 -4 -14 -9 -2 -4 -32 -18 -68 -31 -36 -13 -83 -29 -105 -38 -52 -19
-162 -51 -197 -57 -15 -3 -37 -9 -50 -14 -76 -28 -350 -45 -433 -26 -16 4 -34
8 -40 9 -28 6 -94 48 -120 78 -74 82 -73 103 14 187 54 52 71 74 76 104 6 40
7 40 -53 39 -23 0 -49 -13 -86 -41 -49 -38 -85 -54 -71 -32 3 5 1 12 -4 15
-12 8 -22 62 -15 81 8 21 50 42 98 49 57 9 100 33 119 66 l18 29 -38 25 c-43
28 -73 27 -156 -5 -26 -11 -53 -17 -58 -14 -5 4 -9 38 -9 76 l0 70 48 -7 c26
-3 49 -8 50 -9 11 -9 62 20 69 38 15 47 -11 83 -71 98 -23 6 -52 18 -65 28
-24 18 -24 21 -13 72 6 30 14 70 17 89 3 19 11 53 17 75 5 22 11 45 13 50 3
13 13 40 36 92 11 23 19 47 19 54 0 14 81 185 112 236 27 46 40 36 140 -104z"/>
<path d="M1365 1642 c-28 -6 -35 -20 -35 -69 0 -40 2 -43 28 -43 54 0 71 24
63 92 -2 13 -35 25 -56 20z"/>
<path d="M2050 1610 c-29 -7 -37 -40 -21 -83 11 -29 37 -35 72 -17 14 8 19 21
19 54 0 37 -3 44 -22 48 -13 2 -34 1 -48 -2z"/>
<path d="M1599 1459 c-27 -38 -27 -79 0 -124 24 -42 35 -96 27 -131 -8 -32
-83 -113 -148 -160 -39 -29 -56 -35 -91 -34 -65 4 -72 2 -89 -28 -35 -59 27
-122 119 -122 73 0 107 17 179 90 38 39 71 75 72 80 7 20 50 9 81 -20 17 -17
45 -33 61 -37 17 -3 33 -9 36 -14 9 -15 84 17 84 36 0 30 -35 77 -70 95 -76
39 -85 71 -41 157 25 50 35 116 22 141 -6 11 -26 28 -43 37 -40 20 -155 65
-168 65 -5 0 -19 -14 -31 -31z"/>
</g>
</svg>
